<?xml version="1.0" encoding="UTF-8"?>
<svg id="OBJECTS" xmlns="http://www.w3.org/2000/svg" viewBox="0 0 174.86 164.27">
  <defs>
    <style>
      .cls-1 {
        fill: #a77a43;
        stroke-width: 0px;
      }
    </style>
  </defs>
  <path class="cls-1" d="M122.65,62.73c-.22,0-.44.1-.66.14-.95.17-1.85.53-2.79.73-1.94.42-3.87.91-5.71,1.7-1.68.73-3.33,1.52-4.97,2.34-1.45.72-2.75,1.64-4.03,2.61-1.03.78-1.88,1.75-2.85,2.59-2.28,1.98-4.51,4.01-6.56,6.24-.18.19-.31.46-.67.56.3-.78.63-1.48.84-2.21.46-1.64.98-3.26,1.47-4.89.32-1.07.53-2.18.99-3.21.12-.27.18-.54.46-.7,1.44-.87,2.44-2.25,3.78-3.25,1.17-.88,2.22-1.93,3.48-2.73,1.08-.69,2.13-1.44,3.16-2.21,1.18-.89,2.31-1.84,3.54-2.67,1.1-.74,1.99-1.7,2.89-2.67,1.54-1.63,2.67-3.61,4.32-5.14.26-.24.46-.58.2-.94-.25-.33-.6-.35-.95-.17-.4.21-.78.44-1.17.67-2.82,1.67-5.66,3.28-8.27,5.29-.38.29-.76.59-1.14.89-2.55,2.01-5.04,4.09-7.18,6.54-.51.58-1.05,1.14-1.57,1.71.14-1.3.36-2.52.66-3.73.47-1.9,1.02-3.78,1.5-5.68.11-.44.49-.68.62-1.05.14-.36-.25-.73-.13-1.19.44-1.71.68-3.46,1.24-5.14.55-1.65.58-3.42,1.26-5.04.1-.24.1-.5-.03-.75-.22-.42-.66-.44-.91-.04-.08.13-.15.3-.16.45-.1,1.16-.5,2.26-.76,3.38-.19.84-.46,1.66-.7,2.48-.07-1.18-.04-2.33.07-3.47.22-2.27.49-4.53.46-6.82-.02-1.44-.02-2.89-.09-4.33-.04-.9.14-1.79.03-2.69-.18-1.47-.36-2.93-.38-4.41-.01-.76-.16-1.52-.41-2.26-.23-.69-.54-1.38-.51-2.15.01-.39-.14-.72-.59-.72-.41,0-.69.25-.73.64-.07.65-.32,1.24-.45,1.87-.63,3.11-1.42,6.19-2.08,9.3-.63,2.97-.95,5.96-.8,8.99.14,3,.81,5.92,1.42,8.84.3,1.41.83,2.85,2.07,3.83.31.24.31.52.22.86-.63,2.52-1.23,5.05-1.88,7.57-.1.4-.18.86-.56,1.19-.36-1.26-.41-2.51-.62-3.74-.34-2.02-.6-4.06-1.53-5.94-.44-.88-.72-1.84-.94-2.82-.12-.53-.32-1.05-.53-1.55-.58-1.32-1.17-2.64-1.79-3.95-.23-.5-.41-1-.55-1.53-.08-.32-.32-.58-.7-.54-.33.04-.47.32-.54.61-.04.18-.04.38-.02.57.05.39,0,.77-.01,1.15-.05,2.15-.14,4.3.08,6.45.16,1.57.5,3.1.76,4.65.56,3.39,1.51,6.63,3.06,9.69.48.94.85,1.95,1.6,2.74.34.35.24.77.09,1.18-.17.45-.41.87-.53,1.34-.21.8-.45,1.6-.72,2.38-.57,1.64-1.14,3.27-1.75,4.89-.33.86-.46,1.79-.93,2.6-.31-.13-.27-.39-.29-.59-.1-1.7-.2-3.39-.29-5.09-.1-1.9-.3-3.77-.84-5.6-.33-1.11-.58-2.24-.89-3.35-.44-1.61-.78-3.25-1.51-4.77-.45-.95-.9-1.91-1.3-2.89-.17-.41-.37-.68-.84-.6-.41.07-.63.44-.53.97.09.49.05.95.02,1.44-.18,2.8-.06,5.58.39,8.35.28,1.74.61,3.47,1.03,5.19.45,1.81.63,3.68,1.18,5.46.5,1.61.7,3.35,1.88,4.7.25.29.36.68.45,1.06.07.26.07.5-.04.75-.22.5-.41,1.01-.62,1.51-.99,2.41-1.94,4.83-2.73,7.31-.13.4-.23.8-.53,1.15-.11-.33-.13-.64-.16-.95-.14-1.53-.24-3.08-.48-4.6-.39-2.48-.8-4.95-.99-7.45-.08-1.02-.21-2.05-.56-3.02-.88-2.45-1.99-4.81-2.76-7.3-.1-.33-.27-.62-.66-.58-.38.04-.65.29-.7.69-.14,1.23-.34,2.46-.39,3.7-.12,3.25-.07,6.5.25,9.72.29,2.93.83,5.84,1.93,8.62.44,1.1,1,2.16,1.28,3.33.15.62.43,1.15,1,1.47.52.29.45.63.29,1.12-.64,1.99-1.57,3.87-2.27,5.84-.28.78-.53,1.59-.99,2.3-.65,1.03-.88,2.26-1.65,3.27-.12-.24-.1-.49-.12-.75-.07-1.05.11-2.1-.02-3.16-.09-.79-.14-1.6-.21-2.4-.19-2.07-.53-4.14-.45-6.23,0-.1-.02-.19-.04-.29-.24-2.01-.5-4.02-.72-6.03-.18-1.57-.46-3.11-.95-4.61-.48-1.48-1.31-2.79-1.93-4.2-.22-.5-.66-.95-.72-1.46-.07-.58-.37-.97-.63-1.42-.15-.27-.32-.5-.66-.46-.36.04-.56.3-.65.63-.13.48-.09.96-.04,1.44.18,1.54.16,3.09.07,4.62-.15,2.82-.27,5.65-.3,8.47-.04,3.51.2,7,.77,10.46.22,1.36.53,2.71.73,4.08.3,2.04.69,4.08,1.48,5.97.6,1.45.73,2.61-.38,3.87-.69.78-1.14,1.78-1.7,2.67-.11.18-.22.44-.5.36-.2-.06-.23-.29-.28-.47-.04-.15-.05-.32-.08-.48-.2-1.17-.3-2.36-.43-3.54-.46-4.21-.94-8.42-1.48-12.62-.33-2.58-.85-5.13-1.46-7.66-.64-2.69-1.15-5.4-2.11-8-.54-1.44-1.18-2.85-1.93-4.19-.1-.17-.19-.35-.29-.52h0s0,0,0-.01c-.03-.06-.06-.12-.09-.17-.57-1.08-1.82-3.77-1.82-3.77-.07-.03-.15-.04-.24-.03-.35.03-.63.2-.7.55-.07.31-.07.64-.08.96-.06,2.06.1,4.11.19,6.16.06,1.31.22,2.63.47,3.92.52,2.65.88,5.33,1.62,7.93.43,1.48.52,3.04,1,4.51.79,2.45,1.31,4.97,2,7.44.68,2.47,1.34,4.95,2.14,7.4.56,1.7.85,3.48,1.88,5,.2.3.2.58.04.9-.19.37-.39.74-.66,1.06-.2.24-.35.24-.65.09-.61-.32-.92-.87-1.27-1.41-.74-1.16-1.58-2.28-2.06-3.58-.66-1.78-1.23-3.58-1.64-5.44-.51-2.32-.88-4.67-1.48-6.97-.43-1.65-.77-3.32-1.31-4.93-.48-1.44-.88-2.88-1.14-4.37-.12-.7-.32-1.38-.49-2.06-.49-1.9-1.2-3.73-1.79-5.6-.73-2.31-1.66-4.51-2.91-6.59-.41-.69-.82-1.39-1-2.18-.07-.29-.18-.55-.35-.79-.24-.32-.52-.63-.96-.42-.38.18-.38.55-.33.92.4,2.93.75,5.86,1.21,8.78.5,3.14,1.02,6.26,1.93,9.33.97,3.31,2.27,6.48,3.59,9.65.69,1.66,1.49,3.27,2.27,4.89.49,1.01.93,2.04,1.4,3.06,1.11,2.42,2.31,4.8,3.47,7.2.34.69.64,1.4,1.08,2.04.52.76.52,1.07-.1,1.78-1.08,1.24-1.95,2.62-2.93,3.94-.33.44-.47.98-.85,1.39-.16.18-.12.43.1.59.21.15.43.14.59-.07.67-.9,1.55-1.61,2.06-2.65.18-.36.4-.68.65-.99.84-1.21,2.14-2.78,3.3-2.87h0c.11-.03.24-.03.37-.02.24,0,.51,0,.8.02.56-.06,1.1-.26,1.64-.41,1.91-.54,3.79-1.24,5.81-1.33,2.05-.09,12.94-1.79,15.31-2.25,2.13-.41,4.12-1.2,6.12-2,1.14-.46,2.12-1.21,3.27-1.62.4-.15.72-.32.64-.81-.08-.47-.42-.61-.85-.62-3.08-.12-6.14-.51-9.23-.43-2.81.07-5.55.49-8.28,1.09-1.68.37-3.23,1.07-4.85,1.56-1.1.33-2.17.78-3.25,1.18-1.56.59-3.12,1.18-4.67,1.78-.36.14-.57-.04-.46-.33.32-.85.51-1.84,1.56-2.15.66-.2,1.24-.53,1.81-.89.44-.28.9-.53,1.39-.66,1.16-.3,2.25-.76,3.34-1.21.68-.28,3.22-1.33,3.84-1.52.92-.28,4.68-1.56,5.6-2,1.17-.56,2.48-.68,3.68-1.11,2.37-.84,4.85-1.26,7.29-1.77,2.86-.59,5.56-1.53,8.1-2.96,1.39-.78,2.48-1.93,3.73-2.88,1.02-.77,1.96-1.66,3.12-2.24.34-.17.66-.33.54-.77-.13-.46-.53-.52-.93-.48-.25.03-.5.1-.75.16-.71.18-1.42.42-2.14.53-2.48.38-4.98.61-7.43,1.1-2.32.47-4.63,1.04-6.93,1.65-2.48.65-4.77,1.71-7.03,2.84-1.86.93-3.65,2.03-5.55,2.87-2.87,1.27-5.43,3.03-8.08,4.66-.73.45-1.38,1.01-2.12,1.48-.03-.12-.08-.2-.06-.23,1.08-3.98,6.56-6.47,6.74-6.55,1.65-.98,3.19-2.14,4.91-3.03,1.54-.79,3.09-1.6,4.54-2.54,1.47-.94,3.04-1.66,4.6-2.42,1.77-.86,3.41-1.93,5-3.07,1.9-1.37,3.72-2.87,5.6-4.27.9-.67,1.74-1.42,2.59-2.15,1.58-1.37,2.74-3.15,4.41-4.43.17-.13.24-.37.37-.56.23-.34.41-.71.1-1.06-.32-.37-.72-.3-1.14-.09-3.09,1.53-6.34,2.66-9.57,3.82-1.91.68-3.76,1.49-5.58,2.36-3.29,1.58-6.24,3.69-9.01,6.06-2.47,2.11-4.77,4.39-6.9,6.85-.3.35-.66.66-.99.99.08-.41.27-.73.44-1.06.7-1.41,1.26-2.88,1.88-4.32.47-1.09.93-2.18,1.28-3.33.12-.39.22-.86.54-1.11.51-.41.61-1.06,1.01-1.5.41-.46,1.15-.37,1.63-.77.07-.06.16-.11.24-.16.82-.57,1.64-1.13,2.45-1.7.69-.48,1.4-.91,2.2-1.17,1.92-.62,3.63-1.59,5.18-2.9,1.17-.99,2.43-1.9,3.75-2.7,1.32-.8,2.62-1.62,3.81-2.62.37-.31.74-.63,1.15-.88,1.6-.97,3.1-2.08,4.5-3.31.77-.68,1.63-1.24,2.37-1.96,1.23-1.2,1.76-2.92,3.06-4.07.2-.18.22-.46.05-.71-.16-.24-.4-.32-.67-.29-.16.02-.31.07-.45.14-1.36.67-2.82,1.07-4.22,1.63-2.06.83-4.11,1.64-6.12,2.6-1.42.68-2.75,1.51-4.12,2.27-1.33.73-2.57,1.58-3.77,2.5-.41.31-.74.7-1.19.98-1.67,1.05-3.1,2.41-4.41,3.85-1.24,1.35-2.5,2.69-3.81,4.19.56-1.65,1.07-3.16,1.68-4.63.63-1.51,1.33-3,1.82-4.56.35-1.1.89-1.88,1.94-2.34,1.04-.45,1.96-1.08,2.81-1.84.75-.66,1.52-1.31,2.45-1.7,1.37-.58,2.65-1.31,3.91-2.09,1.37-.84,2.84-1.51,4.16-2.42,1.88-1.3,3.8-2.52,5.74-3.73,1.96-1.23,3.85-2.53,5.62-4.04,1.55-1.33,2.63-3.07,4.22-4.34.05-.04.08-.1.12-.15.34-.53.07-1.06-.56-1.08ZM100.89,64.34c1.21-1.38,2.47-2.68,3.77-3.91,3.4-3.36,8.28-7.74,11.28-8.52-.12.48-.29.65-.47.77-.56.36-1.01.85-1.49,1.3-2.66,2.7-7.65,7.39-12.59,10.11-.12.12-.28.23-.54.3,0,0,.02-.02.05-.05ZM98.98,49.34c-.3-1.35-.56-2.7-.81-4.06-.29-1.55-.52-3.1-.43-4.68.04-.71-.08-1.4-.05-2.11.11-2.78.71-5.47,1.3-8.16.37-1.72.76-3.44,1.15-5.16.05-.21.12-.42.21-.75.3.41.31.77.27,1.1-.12,1.29.14,2.56.22,3.84.2,3.37.27,6.74.12,10.11-.11,2.46-.24,4.93-.51,7.39-.03.25-.07.52-.03.77.28,1.82-.1,3.64.07,5.61-.92-1.26-1.22-2.57-1.51-3.88ZM95.52,66.71c-.2-.93-.53-1.86-.96-2.7-.77-1.48-1.17-3.06-1.55-4.65-.41-1.75-.86-3.49-1.04-5.28-.21-2.07-.42-4.15-.37-6.33.82.75,1.01,1.77,1.28,2.65.76,2.49,1.64,4.93,2.45,7.4.23.7.35,1.43.4,2.17.12,1.77.52,3.49.71,5.25.07.61.15,1.21.23,1.82.04.33-.05.63-.26,1.04-.5-.39-.76-.77-.89-1.36ZM90.38,82.04c0,.22,0,.44,0,.77-.35-.25-.41-.55-.46-.8-.32-1.7-.82-3.36-1.05-5.08-.12-.92-.44-1.81-.67-2.71-.51-2.05-.8-4.15-1.11-6.24-.25-1.7-.29-3.38-.31-5.26.84,1.33,1.09,2.67,1.42,3.97.48,1.87,1,3.72,1.52,5.57.33,1.19.33,2.41.39,3.63.11,2.05.34,4.1.25,6.16ZM70.68,122.3c-.55-1.97-1.07-3.95-1.66-5.91-1.03-3.47-1.84-7.01-2.82-10.5-.69-2.43-1.21-4.92-1.62-7.42-.31-1.9-.81-3.76-1.05-5.68-.22-1.74-.27-3.49-.24-5.26.47.82,1.08,1.53,1.33,2.49.27,1.04.91,1.97,1.24,3.02.71,2.26,1.33,4.55,1.78,6.88.36,1.82.83,3.63,1.14,5.46.59,3.45,1.07,6.91,1.33,10.4.09,1.18.31,2.35.45,3.53.12.98.21,1.97.31,2.95-.07.01-.14.02-.21.03ZM62.84,116.93c-2.35-5.11-4.66-10.24-5.94-15.74-.88-3.8-1.42-7.68-1.97-11.78.62.82.85,1.59,1.16,2.3,1.57,3.53,2.72,7.21,3.56,10.97.69,3.07,1.65,6.06,2.43,9.11.47,1.83.96,3.66,1.23,5.65-.3-.16-.39-.34-.47-.5ZM75.27,128.93c1.72-.61,3.36-1.42,5.1-2.01,2.86-.97,5.69-2.02,8.64-2.71,1.7-.39,3.42-.49,5.16-.56,2.22-.08,4.42.05,6.62.21.25.02.51-.03.81.15-.17.31-.45.34-.68.42-1.19.41-2.32.94-3.46,1.47-.88.41-23.22,4.04-24.35,4.17.75-.61,1.47-.89,2.16-1.14ZM84.36,118.93c1.29-.58,2.62-1.06,3.88-1.7,2.03-1.04,4.06-2.08,6.1-3.1,2.84-1.41,5.78-2.67,8.94-3.28.79-.15,1.57-.35,2.35-.51,2.23-.46,4.48-.83,6.73-1.13.17-.02.38-.1.55.14-1.54,1.23-2.95,2.58-4.79,3.46-1.37.65-2.72,1.3-4.19,1.65-2.28.54-4.51,1.24-6.83,1.6-.73.11-1.42.42-2.13.6-2.72.67-5.34,1.63-7.91,2.73-.79.34-3.87,1.25-4.54,1.56-1.03.46-2.07.87-3.19,1.13,1.6-1.17,3.22-2.34,5.03-3.16ZM77.53,117.27c-.41.44-.53.4-.8-.12-.55-1.08-.74-2.26-.97-3.42-.56-2.7-1.06-5.42-1.41-8.16-.56-4.31-.58-8.65-.43-12.99.07-1.96.11-3.91.15-5.87,0-.12-.03-.25.18-.43.44.89.91,1.75,1.3,2.64.74,1.69,1.03,3.5,1.33,5.31.53,3.14.86,6.3,1,9.48.06,1.41.22,2.82.39,4.22.13,1.06.14,2.11.13,3.17-.01.93-.03,1.86.15,2.79.26,1.29-.12,2.41-1.01,3.37ZM84.69,111.21c1.3-1.29,2.5-2.67,3.88-3.88,1.33-1.16,2.65-2.33,3.97-3.5.12-.11.24-.23.38-.3.65-.29,1.14-.79,1.7-1.2,1.88-1.41,3.93-2.55,6.04-3.57,1.04-.5,2.14-.87,3.22-1.27,1.92-.72,3.86-1.38,5.76-2.18.23-.1.44-.28.73-.14.08.29-.18.38-.33.51-.43.35-.81.75-1.1,1.21-.41.64-.95,1.14-1.54,1.58-1.72,1.3-3.44,2.6-5.19,3.85-2.69,1.93-5.5,3.68-8.49,5.11-1.41.67-2.61,1.63-3.92,2.42-.96.58-1.88,1.23-2.9,1.71-1.35.63-2.51,1.55-3.73,2.37-.36.25-.7.56-1.22.57.96-1.07,1.73-2.28,2.75-3.29ZM84.98,99.33c-.51-1.44-1.24-2.8-1.68-4.27-.73-2.43-1.46-4.87-1.64-7.42-.21-2.88-.45-5.76-.37-8.65.01-.48-.03-.96-.05-1.44,0-.19,0-.38.22-.58.55,1.2.97,2.38,1.41,3.57,1.05,2.81.8,5.77,1.09,8.66.19,1.95.3,3.88.92,5.78.48,1.45.38,3.03.47,4.54-.26.04-.34-.09-.38-.2ZM91.78,94.42c.96-1.07,1.92-2.15,2.96-3.16.97-.94,2.02-1.78,3.05-2.63,1.56-1.29,3.27-2.37,4.95-3.48.54-.35,4.8-2.68,6.16-3.25,1.21-.51,2.4-1.07,3.65-1.49.67-.22,1.33-.45,2.14-.73-.22.7-.55,1.16-.94,1.61-.97,1.09-2.15,1.94-3.34,2.74-2.51,1.68-4.94,3.45-7.33,5.29-.89.69-1.92,1.16-2.83,1.81-1.93,1.37-3.99,2.57-6.06,3.72-1.56.86-3.2,1.58-4.91,2.6.76-1.25,1.68-2.11,2.51-3.02ZM119.4,66.08c-.06.14-.18.3-.31.36-1.14.53-1.82,1.6-2.81,2.31-1.2.86-2.45,1.63-3.71,2.4-.82.5-1.67.95-2.39,1.6-.19.17-.4.32-.61.46-2.67,1.72-5.37,3.39-8.26,4.72-1.29.6-2.46,1.38-3.6,2.21-.7.51-1.43.98-2.19,1.41-.16.09-.31.22-.53.14-.1-.39.14-.63.36-.84,1.29-1.29,2.62-2.54,3.89-3.85,1.34-1.38,2.8-2.62,4.23-3.9,1.76-1.57,3.51-3.2,5.67-4.25,2.19-1.06,4.31-2.29,6.7-2.89,1.46-.37,2.85-.98,4.55-1.22-.43.49-.77.87-.97,1.35Z"/>
</svg>