<?xml version="1.0" encoding="UTF-8"?>
<svg id="OBJECTS" xmlns="http://www.w3.org/2000/svg" viewBox="0 0 174.86 164.27">
  <defs>
    <style>
      .cls-1 {
        fill: #a77a43;
        stroke-width: 0px;
      }
    </style>
  </defs>
  <path class="cls-1" d="M93.47,112.1c.18-.93-.11-1.75-.52-2.44-.47-.79-.64-1.66-.93-2.49-.41-1.18-1.01-2.28-1.41-3.47-.21-.65-.6-.71-1.28-.36-2.61,1.36-5.36,1.93-8.3,1.4-1.52-.28-2.89-.86-4.06-1.88-.82-.71-1.26-1.7-1.76-2.63-.55-1.03-.67-2.21-1.1-3.29-.16-.4.1-.67.45-.84.34-.16.73-.17,1.04-.04,1.06.46,2.19.51,3.3.59,1.81.13,3.53.67,5.3.95,1.29.2,2.59.38,3.93.58.11-.58.06-1.1-.18-1.6-.48-1.02-.87-2.07-1.23-3.13-.08-.24-.19-.48-.28-.72-.14-.38-.35-.4-.74-.32-1.38.3-2.79.36-4.21.27-.45-.03-.89-.09-1.34-.13-1.8-.15-3.45-.81-5-1.63-1.34-.71-2.4-1.82-3.25-3.09-.42-.63-.29-1.14.42-1.37,1.03-.34,2.06-.71,3.14-.91,2.74-.51,5.11.45,7.41,1.75.68.38,1.33.79,1.74,1.49-.34-1.85-.54-3.69-1.05-5.51-.41-1.44-.79-2.9-1.12-4.37-.21-.92-.29-.96-1.24-.98-.71-.01-1.42,0-2.12-.03-2.68-.15-5.15-.95-7.44-2.35-2.03-1.24-2.75-3.22-3.08-5.41-.11-.71.28-1.14.94-.98,1.24.3,2.5.1,3.73.34,1.5.29,2.92.73,4.23,1.54,1.09.67,2.24,1.23,3.43,1.68.27-.23.12-.46.08-.65-.66-2.82-1.08-5.67-1.58-8.52-.12-.67-.52-.95-1.25-.85-.48.07-.95.17-1.42.24-2.86.41-5.28-.45-7.42-2.39-2.43-2.21-2.99-5.07-3.03-8.13-.01-.95.65-1.28,1.41-.67.8.64,1.72,1.02,2.65,1.33,1.53.51,2.95,1.27,4.42,1.92,1.36.61,2.44,1.52,3.07,2.91.12.26.29.49.52.89.14-.51.29-.88.21-1.28-.48-2.44-.47-4.92-.67-7.38-.08-1.05-.1-1.08-1.12-1.38-.87-.25-1.79-.18-2.67-.34-1.05-.19-2.05-.49-3.01-.97-1.71-.84-2.63-2.39-3.32-3.99-.75-1.76-1.2-3.65-1.16-5.61,0-.44-.06-.9-.26-1.31-.19-.39,0-.67.27-.94.3-.3.62-.29.97-.12.26.13.52.27.7.51.84,1.13,2.05,1.75,3.3,2.26,2.63,1.06,4.76,2.63,5.92,5.31.04.08.11.15.27.34.11-.61.25-1.12.28-1.63.11-1.85-.01-3.72.31-5.57.11-.65-.04-.82-.68-1.08-1.28-.51-2.62-.86-3.88-1.44-1.82-.83-3.39-2.01-4.53-3.63-1.18-1.68-1.95-3.55-1.49-5.7.06-.29.04-.57-.05-.85-.13-.4.07-.69.39-.89.37-.23.73-.19,1.05.13,1.53,1.48,3.31,2.63,5.02,3.89,1.39,1.02,2.61,2.18,3.52,3.65.08.13.13.3.29.37.03.01.06,0,.19,0,.15-1.08.34-2.18.43-3.29.17-2.15,1.06-4.02,2.22-5.78.29-.44.77-.77,1.22-1.07.59-.39,1.2-.74,1.76-1.18.14-.12.34-.2.52-.24.66-.13,1.09.16,1.12.83.03.65.15,1.28.28,1.9.3,1.35.15,2.64-.46,3.85-.85,1.69-1.63,3.42-2.76,4.96-.42.57-.84,1.13-1.37,1.6-.74.65-1.15,1.43-1.09,2.45.05.89.01,1.79.01,2.75.36-.14.56-.5.75-.77,1.22-1.78,2.99-2.88,4.77-3.97.69-.42,1.26-.19,1.54.52.83,2.16.64,4.27-.29,6.35-.28.62-.79,1.04-1.3,1.49-1.41,1.26-3.08,2.22-4.28,3.71-.26.32-.59.59-.89.88-.53.52-.92,1.09-.59,1.88.08.2,0,.37-.03.56-.24,1.17-.05,2.35-.09,3.56.41-.08.43-.37.55-.57.86-1.54,1.78-3.04,2.97-4.37.51-.57,1.13-.97,1.79-1.28.88-.42,1.55.05,1.51,1.02-.04.98.28,1.9.47,2.84.18.89.21,1.79.36,2.67.06.32,0,.65-.13.95-.43,1.07-.89,2.13-1.7,2.99-1.17,1.24-2.4,2.41-3.71,3.51-.2.17-.36.37-.57.52-.36.27-.4.61-.34,1.03.26,1.75.41,3.51.87,5.22.15.55-.03,1.17.36,1.77.25-.45.52-.84.69-1.27,1.19-2.97,3.27-5.27,5.62-7.36.54-.48,1.22-.73,1.91-.87.99-.2,1.44.26,1.32,1.26-.05.45-.05.9.03,1.35.28,1.57.28,3.15-.09,4.69-.33,1.39-1.06,2.6-1.96,3.72-1.05,1.3-2.09,2.6-3.1,3.93-.59.78-1.21,1.5-2.04,2.02-.28.17-.56.35-.58.72-.08,1.38.53,2.57.85,4.05.61-.73.73-1.41,1.05-1.99.84-1.51,1.44-3.15,2.46-4.58.4-.56.86-1.03,1.35-1.5.24-.23.54-.34.86-.4.58-.11,1.05.08,1.11.63.17,1.88,1.21,3.53,1.32,5.41.05.8.11,1.6-.22,2.38-.11.26-.14.56-.15.85-.04,1.68-.94,2.95-1.88,4.23-.88,1.19-1.87,2.27-2.83,3.38-.39.46-.48.92-.26,1.51.43,1.18.78,2.38,1.15,3.57.08.24.12.5.35.67.34-.08.33-.37.38-.6.51-2.21,1.38-4.27,2.48-6.24.38-.68.87-1.27,1.33-1.89.53-.72,1.24-1.3,1.71-2.08.14-.23.35-.38.59-.48.71-.32,1.3-.02,1.42.75.11.7.17,1.4.24,2.11.25,2.37.24,4.74-.14,7.11-.11.66-.14,1.34-.33,1.99-.65,2.17-2.21,3.56-3.99,4.78-.29.2-.61.35-.84.64-.12.15-.28.31-.23.51.2.67.02,1.39.34,2.07.52,1.1.91,2.26,1.35,3.4.07.18.12.37.39.48.33-.89.65-1.78,1-2.66.54-1.34,1.26-2.59,2.15-3.74.51-.66.99-1.34,1.54-1.97.7-.8,1.42-.69,1.81.29.6,1.46,1.13,2.94,1.28,4.52.25,2.52-.12,4.97-1.4,7.17-.76,1.32-1.55,2.67-2.75,3.69-.33.28-.35.61-.16.95.59,1.1,1.2,2.18,1.91,3.28.27-1.53,1.08-2.8,1.63-4.18.36-.9.85-1.73,1.34-2.56.17-.29.4-.51.7-.64.59-.26,1.08-.07,1.32.54.07.18.15.37.15.56,0,1.72.6,3.34.86,5.02.08.54.15,1.08.15,1.63,0,1.24-.41,2.25-1.45,2.98-.53.37-1.02.79-1.55,1.14-.3.2-.38.43-.23.73.49,1.01.93,2.05,1.81,2.8.12.11.25.19.3.36.23.86.82,1.51,1.31,2.21.41.58.84,1.14,1.26,1.7.29.39.58.78,1.01,1.01.59.32.64.93.8,1.48.09.29-.14.47-.37.61-.24.14-.5.16-.71-.04-.37-.36-.76-.7-1.06-1.12-1.44-1.97-2.86-3.95-4.27-5.95-.31-.44-.52-.96-.77-1.44-.17-.32-.34-.44-.65-.13-1.63,1.59-3.61,1.85-5.72,1.42-2.2-.44-4.19-1.38-5.94-2.81-.54-.44-.55-.88.08-1.21,2.45-1.29,5-2.18,7.84-1.86.39.04.92.33,1.18-.06.27-.39-.04-.89-.24-1.26-.53-.95-1.13-1.87-1.57-2.87-.17-.38-.44-.43-.79-.28-.36.15-.72.27-1.06.45-1.12.58-2.37.92-3.56,1.14-2.65.49-5.35.79-7.87-.71-.96-.58-1.73-1.3-2.3-2.27-.27-.48-.21-.82.14-1.21.58-.66,1.21-1.26,1.96-1.69,1.53-.88,3.09-1.73,4.88-1.99,1.39-.2,2.75-.22,3.96.68.53.39,1.14.69,1.74,1.04ZM89.96,60.75c-.39.1-.61.24-.8.41-.91.81-1.79,1.65-2.55,2.61-1.33,1.67-2.24,3.56-2.93,5.58-.55,1.6-.64,3.19-.34,4.82.1.53.31.64.71.34.61-.47,1.21-.97,1.59-1.65.75-1.35,1.75-2.51,2.69-3.72,1.13-1.44,2.07-2.94,2.03-4.85-.02-1.17-.02-2.36-.41-3.54ZM75.92,98.15c.44.3.91.42.6.93-.08.14.07.3.21.39.58.39.88,1.01,1.31,1.52.63.75,1.12,1.66,2.13,2.01.98.34,2,.53,3.03.48,1.74-.09,3.43-.45,4.97-1.34.47-.28.96-1.14.88-1.66-.04-.29-.2-.47-.48-.53-.78-.17-1.53-.46-2.33-.61-.79-.15-1.59-.13-2.38-.29-2.07-.42-4.15-.83-6.27-.99-.48-.04-.95-.11-1.66.09ZM86.9,117.27c2.3-.15,3.99-.52,5.64-1.05.61-.19,1.25-.32,1.78-.71.47-.34.53-.68.14-1.1-.18-.19-.41-.3-.65-.39-.91-.34-1.75-.8-2.52-1.39-.65-.49-1.37-.78-2.23-.76-2.17.05-4.04.91-5.76,2.14-.6.43-.58,1.1-.07,1.66.3.34.63.69,1.06.82,1.03.33,2.02.88,2.61.77ZM68.09,38.15c0,1.16.04,2.22.4,3.22.28.77.43,1.62,1.28,2.05.1.05.18.2.21.31.24.82.57,1.52,1.33,2.07.42.3.78.64,1.28.74,1.22.24,2.45.44,3.68.64.56.09.68-.06.55-.63-.28-1.22-.64-2.42-1.35-3.47-.69-1.02-1.44-1.99-2.56-2.56-1.54-.78-3.1-1.53-4.82-2.38ZM90.17,74.45c-.55.48-.8.93-1.05,1.36-.89,1.56-1.69,3.16-2.4,4.81-.54,1.26-1.1,2.53-.83,3.98.17.95.44,1.87.73,2.79.13.41.3.45.59.12,1.2-1.34,2.31-2.75,3.25-4.27.48-.78.72-1.64.73-2.56.02-.83.03-1.67.03-2.5,0-.32.08-.64-.02-.96-.28-.9-.91-1.64-1.05-2.76ZM75.25,61.44c.75-.01,1.3.07,1.84-.07.39-.1.54-.3.36-.7-.18-.41-.29-.86-.51-1.24-.57-.94-.96-1.97-2.06-2.57-2.03-1.11-4.16-1.96-6.28-2.84-.45-.19-.7-.02-.68.47.04.73.05,1.53.46,2.14.77,1.15,1.14,2.66,2.66,3.22.08.03.13.14.19.21.23.33.56.52.92.68,1.06.48,2.13.88,3.12.7ZM95.33,86.1c-1.29,1.5-2.33,2.93-3.03,4.61-.66,1.61-1.11,3.28-1.52,4.96-.24,1.01-.38,2.1.16,3.11.26.5.41.56.89.24.37-.25.72-.54,1.07-.82,1.66-1.36,2.58-3.07,2.54-5.25-.01-.67.07-1.34.14-2.01.17-1.56.26-3.12-.25-4.83ZM96.48,113.42c.41-.22.56-.59.76-.9.39-.59.72-1.22,1.13-1.79.74-1.01,1.19-2.12,1.32-3.36.03-.25.07-.51.14-.75.35-1.11.26-2.24.04-3.34-.16-.78-.41-1.58-.88-2.24-.25.03-.33.18-.42.3-1.64,2.1-2.93,4.39-3.4,7.03-.33,1.84.11,3.55,1.31,5.05ZM84.71,47.74c-.53.6-1.12,1.08-1.47,1.7-.89,1.58-1.95,3.07-2.5,4.85-.42,1.33-.47,2.63-.3,3.97.05.39.25.46.61.24.11-.06.21-.15.31-.23,1.14-.89,2.14-1.94,3.13-2.98.6-.63,1.17-1.38,1.21-2.25.05-1.01.04-2.07-.24-3.05-.21-.72-.26-1.5-.74-2.25ZM79.77,76.3c1.35.02,1.43-.1,1-1.11-.16-.36-.38-.66-.71-.89-.56-.38-1.11-.76-1.74-1.03-.68-.29-1.33-.64-1.96-1.03-1.58-.99-3.28-1.39-5.13-1.16-.5.06-.66.27-.64.78.01.38.18.67.45.92.21.19.47.37.61.6.57.93,1.52,1.37,2.43,1.78,1.87.84,3.92.89,5.69,1.12ZM79.71,44.42c.25.07.37.01.43-.1.34-.57.87-.94,1.38-1.33,1.02-.77,2.04-1.56,3.07-2.31.38-.28.59-.64.82-1.03.73-1.28.41-2.71.67-4.05.05-.27-.11-.51-.34-.65-.24-.15-.42.04-.61.16-2.31,1.41-3.8,3.5-4.92,5.9-.51,1.1-.41,2.29-.51,3.42ZM83.83,90.69c-.51-1.09-.86-1.44-1.61-2.06-.59-.48-1.29-.7-1.94-1.01-2.05-.99-4.09-.84-6.14-.05-.34.13-.39.37-.16.58.35.33.57.84,1.22.83.43,0,.7.42,1.02.68.14.12.2.32.4.4,2.32.96,4.67,1.57,7.23.62ZM69.21,25.61c-.16.21-.16.37-.15.53.13,2.09,1.27,3.67,2.73,4.99,1.11,1.01,2.44,1.76,3.88,2.24.4.14.9.63,1.2.28.27-.31.02-.92-.2-1.35-.57-1.12-1.2-2.18-2.23-2.96-.69-.52-1.31-1.13-2-1.66-1.01-.78-1.94-1.67-3.23-2.09ZM80.31,31.12c.27.03.39-.1.48-.23.77-1.13,1.73-2.13,2.19-3.46.14-.39.28-.8.53-1.13,1-1.32.74-2.78.55-4.23-.04-.31-.23-.37-.47-.21-1.19.75-2.21,1.62-2.15,3.21,0,.19-.03.39-.09.57-.55,1.68-.54,3.47-1.05,5.16-.02.08,0,.18.01.32ZM98.93,122.79c-.73-.13-1.38-.22-2.02-.38-.77-.19-1.43.29-2.17.27-.94-.03-1.81.36-2.7.62-.24.07-.52.16-.51.49,0,.25.2.4.4.5,1.69.83,3.47,1.35,5.35,1.34.88,0,1.73-.33,2.36-1.2-.5-.08-.79.2-1.12.24-.3.04-.6.01-.74-.3-.13-.31.1-.48.33-.61.34-.2.64-.43.82-.96ZM100.99,122.06c.68-.28,1.05-.85,1.65-1.1.84-.35,1.1-.8,1.05-1.71-.04-.7-.06-1.41-.19-2.1-.15-.8-.31-1.62-.75-2.34-.31.12-.42.36-.51.6-.42,1.11-.85,2.21-1.25,3.33-.38,1.06-.31,2.14,0,3.33Z"/>
</svg>