<?xml version="1.0" encoding="UTF-8"?>
<svg id="OBJECTS" xmlns="http://www.w3.org/2000/svg" viewBox="0 0 174.86 164.27">
  <defs>
    <style>
      .cls-1 {
        fill: #a77a43;
        stroke-width: 0px;
      }
    </style>
  </defs>
  <path class="cls-1" d="M105.82,80.71c.03-.3-.23-.36-.41-.49-.24-.18-.47-.39-.43-.7.06-.49-.29-.79-.58-.96-.37-.22-.62-.5-.86-.82-1.01-1.33-2.19-2.51-3.3-3.76-1.06-1.2-2.36-2.07-3.56-3.09-1.14-.97-2.61-1.45-3.65-2.56-.07-.08-.19-.12-.3-.16-1.49-.55-2.85-1.4-4.32-1.97-1.07-.42-2.12-.89-3.17-1.35-1.19-.52-2.36-1.05-3.55-1.57-.3-.13-.49-.31-.37-.66.11-.34.33-.54.7-.5.35.04.66.2.97.35,1.12.53,2.22,1.12,3.38,1.55,2.27.84,4.51,1.76,6.7,2.78.53.25.98.6,1.47.91.97.61,1.94,1.23,2.92,1.84.55.35,1.04.77,1.61,1.14-.14-.33-.25-.66-.41-.98-.58-1.16-.91-2.43-1.61-3.54-.31-.49-.59-.99-.95-1.44-1.09-1.42-2.3-2.72-3.52-4.02-1.22-1.31-2.52-2.53-3.85-3.72-.97-.86-2.01-1.6-3.2-2.17-1.42-.68-2.71-1.6-3.89-2.67-.4-.37-.46-.67-.24-.98.22-.3.48-.28,1-.1.74.26,1.15.93,1.73,1.37.65.49,1.31.93,2.06,1.24,1.3.53,2.35,1.45,3.45,2.27,1.71,1.28,3.21,2.8,4.67,4.35.11.12.2.29.48.29-.09-.53-.54-.8-.8-1.18-1.28-1.88-2.58-3.75-4.01-5.52-1.52-1.88-2.92-3.86-4.33-5.82-1.13-1.57-2.4-3.01-3.59-4.52-.73-.92-1.59-1.74-2.5-2.5-.22-.18-.42-.39-.62-.6-.22-.23-.29-.49-.09-.78.2-.3.46-.43.81-.32.13.04.3.09.38.19.9,1.08,2.14,1.81,2.97,2.99.98,1.38,2.17,2.61,3.23,3.93.81,1.01,1.58,2.06,2.33,3.11,1.42,1.99,2.92,3.92,4.47,5.81.43.53.74,1.15,1.38,1.79-.25-.81-.36-1.46-.64-2.03-.43-.89-.47-1.83-.63-2.77-.08-.48-.13-.97-.25-1.44-.11-.44-.25-.87-.73-1.11-.38-.19-.44-.66-.61-1.02-.61-1.28-.63-2.55.05-3.81.6-1.1,2.74-1.36,3.56-.38.79.96,1.27,2.04,1.08,3.35-.13.89-.54,1.54-1.39,1.8-.46.14-.54.38-.46.76.34,1.45.44,2.95.96,4.38.65,1.81,1.19,3.67,1.78,5.51.1.3.19.6.43.84.25-.14.12-.36.12-.54-.2-3.71-.43-7.42-.17-11.13.15-2.18.31-4.37.75-6.52.2-.98.28-1.99.45-2.99.24-1.39.49-2.78.66-4.18.05-.39.27-.65.66-.69.41-.05.81.05,1.13.32.13.11.1.28-.02.38-.52.41-.47,1.01-.59,1.56-.48,2.17-.63,4.39-1.11,6.56-.14.62-.16,1.26-.21,1.89-.13,1.81-.28,3.62-.42,5.43-.06.74.09,1.48.04,2.24.33-.32.42-.74.55-1.13.35-1.07.8-2.09,1.32-3.09.49-.94.93-1.91,1.48-2.83.24-.39.51-.71.96-.8.32-.06.49-.26.65-.51.47-.75,1.21-1.15,2.03-1.37.59-.16,1.15-.03,1.58.44.3.32.56.68.65,1.11.16.7.34,1.4.4,2.12.13,1.65-1.31,2.83-2.94,2.45-.56-.13-1.03-.33-1.42-.75-.16-.17-.31-.32-.59-.14-.53.32-.54.31-.81-.23-.03-.05-.06-.09-.14-.21-.36.45-.48.98-.71,1.45-.75,1.56-1.32,3.19-1.91,4.82-.67,1.88-.83,3.81-.71,5.79.07,1.14.19,2.29-.01,3.43-.11.6.05,1.15.31,1.67.74,1.5,1.5,2.99,2.27,4.47.29.56.75,1.02.92,1.65.05.18.2.34.4.42.27-.18.29-.45.3-.7.08-2.33.77-4.55,1.45-6.74.64-2.05,1.54-4.03,3.01-5.68.63-.71.93-.82,1.73-.36.2.12.38.09.58.07.63-.08,1.12.18,1.55.6,1.1,1.09,1.18,2.78.17,3.81-.46.47-1.06.72-1.69.82-.68.11-1.14-.33-1.45-.89-.26-.48-.54-.95-.89-1.42-.37.16-.47.51-.61.8-.71,1.51-1.38,3.03-1.62,4.72-.13.91-.59,1.77-.57,2.7.03,1.47-.5,2.89-.32,4.37.06.5.18.9.67,1.11.38.16.51.45.42.84-.08.34.05.61.23.88.8,1.23,1.58,2.47,2.13,3.85.05.13.16.24.24.35,1.28,1.82,2.37,3.75,3.54,5.63,1.81,2.9,3.13,6.03,4.51,9.14.43.97.88,1.93,1.27,2.93.71,1.81,1.15,3.69,1.26,5.61.08,1.28-.08,2.59-.16,3.88-.04.56-.57,1.1-1.06,1.21-.35.08-.43-.03-.47-.38-.16-1.18-.02-2.34.09-3.51.17-1.91-.24-3.7-.85-5.49-.73-2.13-1.79-4.11-2.66-6.18-.7-1.67-1.52-3.29-2.38-4.9-.65-1.22-1.51-2.29-2.24-3.46-.08-.12-.18-.24-.29-.32-.98-.69-1.67-1.66-2.55-2.45-.69-.62-1.48-1.1-2.28-1.55-.83-.47-1.68-.89-2.51-1.35-1.65-.92-3.41-1.53-5.18-2.15-.79-.27-1.52-.74-2.36-.8-.64-.05-1.22-.31-1.85-.36-.32-.03-.56-.16-.57-.52-.01-.32.14-.54.44-.67.34-.15.68-.08,1.02-.04,1.18.14,2.3.5,3.41.91,1.89.69,3.8,1.37,5.6,2.25,1.11.54,2.13,1.25,3.27,1.75.1.04.18.15.32.07ZM106.59,48.59c.36-.17.65-.5.64-.92-.03-.76-.01-1.54-.47-2.22-.25-.37-.64-.49-1.05-.31-.8.34-1.39,1.61-1.13,2.46.2.66,1.38,1.26,2.02.99ZM109.75,60.17c-.44,0-.44.22-.36.47.19.57.38,1.14.58,1.71.09.25.19.51.52.48.33-.02.51-.25.59-.55.08-.27.1-.56.19-.83.2-.58.16-.72-.26-1.1-.42-.37-.86-.4-1.26-.19ZM92.41,46.3c.37.54.54,1.2,1.26,1.34.07.01.13.18.17.28.11.27.35.34.56.29.31-.08.32-.39.26-.65-.14-.59-.29-1.17-.64-1.68-.3-.43-.62-.5-.98-.1-.18.2-.36.35-.63.52Z"/>
  <path class="cls-1" d="M57.27,66.96c-1.08-.87-2.36-1.41-3.48-2.23-.75-.56-1.4-1.21-2-1.9-.61-.7-1.27-1.34-1.98-1.93-1.15-.96-2.11-2.11-3.23-3.11-.61-.55-.62-1.75-.11-2.39.4-.5.95-.34,1.45-.36,1.5-.06,2.72,2.05,1.84,3.18-.27.35-.16.56.1.8.87.79,1.72,1.6,2.61,2.37.41.35.71.81,1.25,1.29-.13-.6-.48-.88-.63-1.26-.81-2.03-1.69-4.04-1.91-6.25-.06-.66-.12-1.32-.15-1.98-.02-.3-.1-.55-.27-.8-.9-1.3-.66-2.62.66-3.47,1.01-.65,2.11-.9,3.3-.5,1.11.37,1.63,1.5,1.3,2.64-.33,1.15-1.12,1.76-2.16,2.17-.43.17-.95.25-1.25.55-.34.34.05.87.02,1.33-.03.43.04.86.31,1.23.1.13.17.29.19.47.27,1.95,1.11,3.66,2.26,5.24.01.02.05.02.07.03.09-.11.05-.24,0-.32-.67-1.11-.83-2.38-1.12-3.61-.06-.27-.22-.46-.35-.68-.39-.65-.74-1.35-.67-2.11.17-1.75,1.68-2.86,3.71-1.72,1.11.62,1.41,1.37,1.18,2.35-.12.5-.39.89-.82,1.17-.38.25-.77.51-1.14.77-.32.22-.43.49-.33.89.18.73.47,1.42.72,2.13.67,1.88,1.83,3.45,2.97,5.04.17.23.34.45.76.44-.21-.43-.35-.83-.58-1.18-1.11-1.66-1.88-3.43-2.05-5.44-.03-.4-.2-.78-.28-1.17-.07-.37.02-.71.35-.91.34-.2.66-.11.95.15.13.12.29.19.43.29.15.11.26.27.17.44-.58,1-.13,1.95.17,2.89.29.91.68,1.77,1.24,2.56.91,1.29,1.52,2.79,2.58,3.98.17.19.29.43.59.59.12-.42-.13-.73-.26-1.04-.6-1.44-1.08-2.91-1.36-4.45-.44-2.33-.71-4.66-.34-7.03.1-.62.2-1.25.33-1.87.08-.36.29-.63.71-.64.36,0,.84.35.93.67.06.19-.01.35-.15.46-.35.28-.39.68-.45,1.08-.3,2.16-.28,4.31.24,6.44.17.7.33,1.4.49,2.1.31,1.33.93,2.53,1.51,3.75.49,1.02,1.13,1.94,1.69,2.91.16.28.33.54.72.65.19-.37.01-.72-.06-1.06-.2-.87-.54-1.7-.77-2.56-.35-1.3-.26-2.63-.36-3.95-.07-.91-.13-1.83-.1-2.76,0-.2-.03-.4.04-.6.19-.49.72-.64,1.12-.29.19.17.36.38.51.59.22.32-.12.44-.25.64-.11.18-.06.39-.06.59,0,1.62-.02,3.24.35,4.82.55,2.35,1.01,4.74,2.45,6.78.6.85,1.4,1.51,2.1,2.3-.08-.63-.34-1.19-.5-1.77-.47-1.7-.94-3.39-1.1-5.15-.23-2.58-.48-5.17.34-7.72.12-.38.17-.79.2-1.19.04-.43.13-.81.61-.93.24-.06.48-.03.61.19.22.37.5.75.29,1.21-1.16,2.61-1.03,5.32-.69,8.05.23,1.9.8,3.72,1.27,5.56.1.41.31.81.53,1.18.78,1.25,1.1,2.71,1.88,3.96.3.48.82.72,1.16,1.24.21-.34.13-.58.07-.82-.64-2.64-.62-5.3-.44-7.99.13-1.99.57-3.93.84-5.9.04-.28.11-.57.22-.83.26-.61.43-1.25.57-1.9.07-.34.18-.67.32-.98.22-.48.59-.65.96-.5.38.15.53.64.35,1.1-.73,1.89-1.29,3.82-1.48,5.84-.08.86-.37,1.68-.42,2.55-.11,2.22-.19,4.43.15,6.64.22,1.43.69,2.79,1.11,4.17.08.25.22.39.44.5.34.17.56.4.41.83-.12.35.08.61.29.86,1.14,1.35,2.03,2.87,3.05,4.29,1.46,2.04,2.33,4.36,3.44,6.57.54,1.08.95,2.23,1.39,3.35.64,1.63,1.2,3.29,1.65,4.99.42,1.59.84,3.17,1.25,4.76,0,.03.02.05.03.08.11.46-.05.91-.37,1.04-.27.11-.83-.15-1.03-.48-.06-.1-.1-.21-.12-.32-.34-2.14-1.01-4.19-1.64-6.24-.69-2.22-1.49-4.43-2.51-6.54-.74-1.53-1.44-3.08-2.24-4.57-.57-1.06-1.3-2.04-1.92-3.08-.87-1.47-2.05-2.7-3.17-3.97-.79-.9-1.88-1.42-2.96-1.91-1.82-.83-3.77-1.26-5.69-1.75-.57-.15-1.16-.33-1.77-.37-1.14-.08-2.24.18-3.25.67-.61.3-1.24.45-1.88.63-.27.08-.53.06-.7-.18-.15-.22-.17-.48-.05-.74.18-.4.5-.7.75-1.05.12-.17.32-.16.45,0,.27.35.56.19.85.06.66-.3,1.37-.43,2.07-.61,1.36-.35,2.7-.03,4.03.21,1.19.21,2.35.58,3.48,1.01.15.06.33.23.47.05.17-.21-.04-.37-.17-.51-.79-.82-1.66-1.52-2.8-1.8-1.46-.35-2.93-.64-4.41-.88-.8-.13-1.59-.29-2.37-.48-.87-.22-1.76-.33-2.63-.52-.5-.11-.97-.1-1.43.12-.18.08-.38.15-.57.19-.24.05-.47-.02-.61-.23-.14-.21-.13-.46,0-.66.23-.38.57-.69,1.02-.73.63-.05,1.26-.13,1.89,0,1.39.26,2.78.5,4.16.79,1.26.27,2.51.64,3.92.64-.32-.52-.78-.75-1.14-1.09-.38-.36-.74-.72-1.33-.66-.28.03-.45-.21-.62-.41-.54-.65-1.23-.98-2.07-1.12-1.13-.19-2.24-.54-3.37-.75-.52-.09-1.02-.15-1.54-.15-.26,0-.53,0-.77-.07-.81-.26-1.63-.23-2.46-.25-1.35-.03-2.71-.1-4.06-.14-.41-.01-.68-.2-.73-.59-.04-.36.23-.6.54-.7.64-.21,1.26-.64,1.96-.11.14.1.39.07.59.07,1.41,0,2.82.07,4.21.35.5.1,1.03.11,1.55.12.72.02,1.43.11,2.26.25-.29-.47-.69-.58-1.08-.73-2.29-.87-4.64-1.53-6.97-2.28-1.29-.41-2.56-.89-3.83-1.34-.3-.11-.58-.19-.92-.15-.46.06-.71-.24-.71-.73,0-.51.27-.78.75-.69.71.13,1.43.25,2.1.51,1.13.43,2.35.58,3.43,1.15.27.14.6.17.91.25ZM53.92,51.76c.43-.15.7-.41.7-.88,0-.48-.1-.91-.56-1.18-.81-.49-1.96-.07-2.27.83-.14.41.02.88.41,1.13.55.35,1.13.4,1.71.11ZM56.32,56.4c.69-.3.88-.77.59-1.44-.26-.6-.95-.94-1.46-.73-.58.25-.93,1.17-.66,1.75.27.58.82.73,1.53.42ZM48.75,56.66c-.19-.41-.82-.62-1.23-.43-.29.13-.42.46-.28.71.17.3.94.57,1.23.41.3-.16.38-.41.27-.69Z"/>
  <path class="cls-1" d="M88.63,117.93c-.37.06-.33.57-.65.45-.33-.12-.39-.48-.38-.8.03-.95.36-1.79.9-2.55.18-.26.46-.51.81-.37.43.17.79,0,1.16-.16.72-.3,1.39-.23,2.05.18.39.24.8.46,1.13.78.71.66,1.01,1.78.68,2.52-.47,1.05-1.18,1.47-2.29,1.51-1.41.05-2.49-.54-3.41-1.54ZM89.82,116.89c.53,1.25,1.57,1.4,2.56,1.12.36-.1.55-.42.58-.79.08-.99-.25-1.39-1.25-1.56-.49-.08-.98-.04-1.46,0-.41.04-.6.32-.54.73.03.2.09.39.11.48Z"/>
  <path class="cls-1" d="M82.32,31.1c-.46-.79-.13-1.62.22-2.41.22-.49.7-.8,1.23-.85.63-.06,1.27-.08,1.88.12.79.25,1.34.7,1.54,1.57.28,1.22.44,2.44-.06,3.63-.3.72-1.25,1.17-2,.97-.84-.22-1.54-.66-1.93-1.46-.25-.52-.73-.9-.89-1.56ZM85.69,32.44c.19-.75.23-1.47.03-2.2-.14-.5-.34-.57-.8-.29-.61.37-.5.36-.44,1.14.07.82.48,1.15,1.21,1.35Z"/>
</svg>