<?xml version="1.0" encoding="UTF-8"?>
<svg id="OBJECTS" xmlns="http://www.w3.org/2000/svg" viewBox="0 0 174.86 164.27">
  <defs>
    <style>
      .cls-1 {
        fill: #a77a43;
        stroke-width: 0px;
      }
    </style>
  </defs>
  <path class="cls-1" d="M86.1,85.05c.04-2.51-.98-4.56-2.7-6.37-1.31-1.38-2.84-2.22-4.76-2.38-1.15-.1-2.23.22-3.31.47-.67.16-1.32.46-1.97.72-.14.06-.28.16-.38.28-.59.73-1.23,1.44-1.75,2.23-.98,1.48-1.38,3.05-.77,4.84.5,1.48.98,2.95,2,4.15.93,1.09,1.94,2.06,3.6,2.05.87,0,1.73-.16,2.6-.16.79,0,1.59,0,2.37-.25,1.9-.59,3.41-1.72,4.55-3.31.52-.72.48-.9.52-2.27ZM72.89,86.37s-.09,0-.14.01c-.16-.31-.34-.61-.46-.93-.15-.38-.37-.78-.37-1.17.01-1.12.29-2.2.67-3.25.13-.36.4-.63.67-.91.98-1.03,2.21-1.61,3.55-1.98.89-.25,1.81-.46,2.75-.18,2.26.7,5.22,3.53,4.93,7.08-.1,1.24-.63,2.24-1.8,2.83-.26.13-.5.29-.69.51-.26.32-.61.45-1,.53-.28.06-.56.1-.83.22-1.53.64-3.58.07-4.57-1.21-1.04-1.34-1.41-2.8-.83-4.43.11-.3.22-.64.6-.68.66-.06,1.11-.44,1.59-.82.58-.45,1.26-.67,1.98-.58.77.11,2.08,2.08,1.96,2.84-.08.5-.28.98-.84,1.01-.56.04-1.23.34-1.67-.33-.39-.61-.92-.97-1.68-.87-.81.1-1.09.72-.59,1.36.29.38.63.72.94,1.08.38.43.86.64,1.44.66,1.06.03,2.04-.27,2.98-.67.54-.23,1.04-.72,1.04-1.37.01-1.92-.79-3.5-2.27-4.72-.68-.57-1.49-.82-2.43-.59-1.28.32-2.36.97-3.37,1.76-1.13.88-1.69,2.03-1.56,3.49.04.43,0,.87,0,1.31Z"/>
  <path class="cls-1" d="M56.99,65.27c.17-.34,0-.53-.11-.7-.85-1.29-1.62-2.64-2.13-4.09-.68-1.96-1.34-3.96-1.03-6.11.09-.63.14-1.28.2-1.92.05-.52.22-.99.42-1.47.83-1.96,3.44-1.67,4.28-.13,1,1.81,1.73,3.72,1.91,5.81.05.53.09,1.07.58,1.55.2-.64.4-1.2.57-1.78.47-1.53,1.25-2.88,2.24-4.12.49-.61,1.1-1.08,1.7-1.56.92-.74,1.79-.55,2.41.49.7,1.17.96,2.47.95,3.79-.01,1.41-.13,2.81-.42,4.2-.34,1.59-1.09,3.01-1.7,4.49-.07.17-.28.32-.11.51.14.16.37.11.55.06.28-.08.54-.24.81-.28,1.47-.22,2.95-.19,4.4.17,1.36.34,2.19,1.39,2.17,2.61,0,.75-.29,1.33-.98,1.64-1.19.54-2.33,1.17-3.64,1.49-1.46.36-2.94.69-4.35,1.23-.66.25-.66.25-.25.84.44.63.97,1.19,1.36,1.87.91,1.57,1.22,3.3,1.4,5.06.1.94-.3,1.76-.84,2.5-.27.37-.69.65-1.13.68-1.14.07-2.29-.05-3.12-.95-.82-.89-1.7-1.72-2.39-2.75-1.05-1.58-1.5-3.31-1.81-5.12-.03-.16,0-.32-.02-.48-.03-.27-.16-.43-.45-.29-1.45.71-2.96.71-4.5.44-.19-.03-.38-.08-.55-.15-1.07-.44-2.1-.97-3.07-1.6-1.5-.97-1.85-2.28-1.33-3.99.36-1.19,1.19-1.95,2.14-2.49,1.02-.59,2.24-.77,3.45-.41.82.24,1.64.49,2.38.95ZM62.18,66.64c.35.03.56-.19.78-.36,1.33-1.03,2.24-2.43,2.89-3.92.89-2.01,1.57-4.1,1.65-6.39.05-1.32-.43-2.44-.66-3.65-.08-.44-.33-.49-.7-.18-.68.59-1.34,1.21-1.74,2.04-.82,1.75-1.54,3.51-1.95,5.42-.34,1.62-.44,3.24-.47,4.87-.02.71-.15,1.46.18,2.15ZM60.11,66c-.05-2.03.24-3.87-.4-5.7-.31-.89-.47-1.86-.61-2.81-.18-1.2-.45-2.39-.73-3.58-.19-.82-.63-1.54-1-2.28-.18-.37-.53-.56-.97-.44-.36.1-.71.32-.69.71.03.75-.29,1.44-.32,2.14-.05,1.35-.04,2.7.26,4.07.5,2.29,1.61,4.24,2.89,6.13.4.59.76,1.26,1.58,1.77ZM55.35,71.68c1.98.14,3.32-.77,4.15-2.52.33-.7.16-1.07-.63-1.23-.74-.16-1.4-.45-2.02-.87-.42-.29-.88-.52-1.31-.81-1.14-.76-2.34-.82-3.57-.27-1.13.5-1.53,1.41-1.57,2.62-.03,1.09.61,1.57,1.43,1.93.76.34,1.5.73,2.3.98.41.13.81.2,1.21.17ZM66.65,78.84c-.24-2.73-.59-3.71-2.14-5.53-.27-.32-.54-.64-.83-.94-.4-.41-.81-.82-1.24-1.21-.44-.4-1.01-.48-1.54-.31-.5.16-.38.71-.38,1.1-.01,2.18.39,4.25,1.65,6.1.62.91,1.29,1.75,2.26,2.33.52.31,1.09.56,1.63.28.56-.29.65-.92.6-1.52,0-.1-.01-.19-.02-.29ZM70.11,65.36c-2.56.09-4.78,1.02-6.67,2.74-.5.45-.33,1.03.33,1.22.47.14.95.08,1.43-.03,1.24-.28,2.48-.61,3.73-.83,1.27-.22,2.46-.66,3.66-1.1.31-.11.59-.27.59-.67,0-.36-.17-.61-.46-.79-.3-.18-.63-.31-.98-.39-.54-.12-1.08-.14-1.63-.17Z"/>
</svg>