<?xml version="1.0" encoding="UTF-8"?>
<svg id="OBJECTS" xmlns="http://www.w3.org/2000/svg" viewBox="0 0 174.86 164.27">
  <defs>
    <style>
      .cls-1 {
        fill: #a77a43;
        stroke-width: 0px;
      }
    </style>
  </defs>
  <path class="cls-1" d="M109.18,80.92c.83.94,1.75,1.6,2.47,2.5,1.18,1.49.93,3.67-1.55,4.42-1.1.33-2.2.16-3.29-.11-.43-.11-.8-.41-.88-.85-.15-.86-.54-1.67-.5-2.58.03-.73.3-1.4.45-2.1.2-.93.17-1.04-.73-1.38-.88-.34-1.74-.75-2.62-1.09-1.32-.5-2.73-.63-4.13-.46-.87.1-1.72.34-2.55.65-.76.28-1.55.49-2.35.66-1.47.32-2.65,1.16-3.66,2.15-1.28,1.25-2.39,2.68-3.4,4.15-.5.72-.96,1.47-1.45,2.2-1.02,1.51-2.22,2.89-3.32,4.34-.81,1.06-1.63,2.13-2.57,3.07-.71.71-1.4,1.46-2.21,2.05-.84.61-1.61,1.33-2.58,1.75-.28.12-.43.34-.38.7.24,2.01-.35,3.87-1.02,5.72-.05.15-.13.3-.24.42-1.36,1.58-2.63,3.25-4.31,4.53-.81.62-1.75,1-2.64,1.48-.79.43-.85.54-.56,1.4.47,1.37.65,2.79.95,4.19.08.37.09.74-.34.91-.44.17-.78-.02-.98-.41-.23-.44-.51-.83-.82-1.21-.3-.37-.52-.7.1-1,.23-.11.1-.34.03-.52-.2-.52-.39-1.04-.59-1.56-.26-.66-.41-.79-1.11-.58-1.04.3-2.09.44-3.17.54-1.39.13-2.74-.02-4.08-.32-1.44-.33-2.61-1.18-3.55-2.29-.88-1.04-.91-2.98-.09-3.93.64-.74,1.52-1.14,2.46-1.33,1.25-.25,2.48-.21,3.75.22,2.29.78,4.2,2.04,5.72,3.91.34.42.78.58,1.31.46.19-.04.39-.08.57-.15.64-.25,3.07-2.03,3.57-2.59.48-.53,1.01-1.01,1.48-1.55.69-.78,1.15-1.67,1.53-2.6.36-.88.42-1.84.41-2.79,0-.57-.21-.69-.85-.63-1.93.17-3.79-.11-5.53-.93-1.41-.67-2.82-1.4-3.54-2.94-.56-1.19-.69-2.38.04-3.54.75-1.18,1.86-1.69,3.24-1.62,2.85.14,4.88,1.6,6.32,4,.22.36.49.7.66,1.08.31.68.77.97,1.52.83.21-.04.49.11.64-.1.36-.52.83-.88,1.33-1.26.3-.23.59-.57.93-.79.97-.62,1.46-1.66,2.23-2.45,1.5-1.55,2.7-3.35,3.99-5.07,1.29-1.72,2.5-3.5,3.78-5.23,1.23-1.66,2.74-2.94,4.56-3.9.65-.35,1.37-.42,2.05-.62,1.44-.42,2.83-.98,4.33-1.2,1.18-.18,2.31-.06,3.48.15,1.54.27,2.92.89,4.27,1.63.26.14.55.2.81.33.55.27,1.05.17,1.57-.12,1.75-.96,3.61-1.61,5.51-2.22,2.63-.85,5.34-1.5,7.88-2.62,1.33-.59,2.33-1.58,3.17-2.69.78-1.03,1.52-2.15,1.58-3.52.05-.94-.09-1.88-.37-2.78-.23-.71-.48-.82-1.26-.79-.33.01-.66-.01-.98.04-1.76.26-3.43-.14-5.1-.62-.66-.19-1.32-.35-2-.47-.98-.17-1.26-.77-.8-1.63.42-.78.91-1.51,1.52-2.16,1.1-1.17,2.22-1.33,3.58-.49.3.19.59.4.86.64.2.18.4.34.68.32.35-.02.62.17.89.35.16.11.31.28.49.32.84.18,1.54.48,1.7,1.45.01.08.13.14.2.2,2.04,1.67,2.37,3.94,2.21,6.36-.03.47-.27.94-.47,1.38-.82,1.81-1.99,3.36-3.47,4.67-.54.48-1.16.81-1.85,1.06-1.28.47-2.48,1.16-3.83,1.48-2.32.55-4.54,1.41-6.83,2.05-.78.22-1.54.53-2.29,1ZM70.77,99.72c.85-.11,1.16-.45.84-1-.91-1.53-1.74-3.14-3.31-4.16-.36-.23-.72-.48-1.14-.53-.74-.09-1.49-.14-2.24-.19-.47-.03-.85.17-1.03.59-.55,1.32-.08,3.94,1.96,4.33.7.14,1.37.36,2.04.65.91.4,1.89.47,2.88.31ZM55.06,108.47c-.61.12-1.09.19-1.53.43-.95.51-1.25,1.5-.53,2.26.77.81,1.56,1.66,2.76,1.9.36.07.71.05,1.07.08,1.53.17,3.05-.03,4.58-.16.34-.03.65-.13.77-.49.11-.31-.17-.45-.33-.65-.96-1.19-2.23-2.02-3.54-2.71-1.01-.53-2.15-.98-3.25-.67ZM107.07,85.48c.06.34.05.77.47.87.53.13,1.08.27,1.59-.09.27-.18.55-.33.86-.44.66-.23.79-.52.54-1.16-.12-.31-.3-.58-.55-.79-.52-.44-1.04-.87-1.59-1.27-.45-.33-.66-.25-.91.24-.42.83-.6,1.71-.42,2.64ZM117.75,62.41c1.27.62,2.55.69,3.79.94.18.04.39-.02.58-.05.13-.02.26-.06.3-.21s-.05-.25-.17-.32c-.67-.42-1.2-1-1.76-1.54-.16-.16-.37-.26-.57-.38-.25-.15-.52-.19-.72.03-.46.49-1.03.89-1.46,1.54Z"/>
</svg>